<?xml version="1.0" encoding="UTF-8" standalone="no"?>
<!DOCTYPE svg PUBLIC "-//W3C//DTD SVG 1.1//EN" "http://www.w3.org/Graphics/SVG/1.1/DTD/svg11.dtd">
<svg width="100%" height="100%" viewBox="0 0 1116 210" version="1.1" xmlns="http://www.w3.org/2000/svg" xmlns:xlink="http://www.w3.org/1999/xlink" xml:space="preserve" xmlns:serif="http://www.serif.com/" style="fill-rule:evenodd;clip-rule:evenodd;stroke-linecap:round;stroke-linejoin:round;stroke-miterlimit:1.5;">
    <g>
        <g transform="matrix(1.01758,0,0,1.13393,-17.7178,-9.00189)">
            <path d="M1034.7,119.977L1070.68,119.977L1070.68,132.422L1020.12,132.422L1020.12,119.977L1020.29,119.977L1020.29,68.191L1020.34,68.191L1020.34,68.044L1070.9,68.044L1070.9,80.488L1034.7,80.488L1034.7,119.977Z" style="fill:rgb(57,57,57);stroke:rgb(57,57,57);stroke-width:1.35px;"/>
        </g>
        <g transform="matrix(1,0,0,1,0.333333,0)">
            <path d="M1067.45,96.71L1067.45,109.377L1044.9,109.377L1048.01,96.71L1067.45,96.71Z" style="fill:rgb(74,172,238);stroke:rgb(74,172,238);stroke-width:1.45px;"/>
        </g>
    </g>
    <g>
        <g transform="matrix(1,0,0,1.2924,0,-19.927)">
            <rect x="955.852" y="68.15" width="54.8" height="11.4" style="fill:rgb(57,57,57);stroke:rgb(57,57,57);stroke-width:1.26px;"/>
        </g>
        <g transform="matrix(1,0,0,1,1,0)">
            <path d="M989.652,88.95L989.252,140.15L974.452,140.15L974.652,89.15C974.652,89.15 977.944,87.031 982.338,87.031C986.732,87.031 989.652,88.95 989.652,88.95Z" style="fill:rgb(57,57,57);stroke:rgb(57,57,57);stroke-width:1.45px;"/>
        </g>
    </g>
    <g>
        <path d="M820.346,67.95L865.546,138.55L849.952,138.655L805.946,67.75L820.346,67.95Z" style="fill:rgb(57,57,57);stroke:rgb(57,57,57);stroke-width:1.45px;"/>
        <rect x="805.946" y="67.75" width="13.8" height="71.2" style="fill:rgb(57,57,57);stroke:rgb(57,57,57);stroke-width:1.45px;"/>
        <path d="M865.546,67.75L865.546,120.75C865.546,120.75 854.946,115.15 850.946,100.15C850.746,80.35 851.546,67.75 851.546,67.75L865.546,67.75Z" style="fill:rgb(57,57,57);stroke:rgb(57,57,57);stroke-width:1.45px;"/>
    </g>
    <g>
        <path d="M777.745,137.95L791.145,137.95L791.645,85.484C791.645,85.484 778.138,105.939 778.112,113.35C778.078,122.65 777.745,137.95 777.745,137.95Z" style="fill:rgb(57,57,57);stroke:rgb(57,57,57);stroke-width:1.45px;"/>
        <g transform="matrix(-1,0,0,1,1506.89,-1.42109e-14)">
            <path d="M775.545,88.182L775.545,138.35L787.945,138.35L787.945,68.35L771.545,68.35L751.445,116.529L731.345,68.35L718.945,68.35L745.444,130.913L745.345,131.15L757.545,131.15L757.446,130.913L775.545,88.182Z" style="fill:rgb(57,57,57);stroke:rgb(57,57,57);stroke-width:1.45px;"/>
        </g>
    </g>
    <g transform="matrix(1,1.22465e-16,1.22465e-16,-1,28.2,206.173)">
        <path d="M646.648,117.838L626.212,68.35L610.219,68.422L638.645,137.202L638.419,137.75L654.412,137.822L654.495,137.622L654.819,137.622L654.657,137.23L683.019,68.55L667.019,68.55L646.648,117.838Z" style="fill:rgb(57,57,57);stroke:rgb(57,57,57);stroke-width:1.45px;"/>
    </g>
    <path d="M626.59,96.35L626.59,109.35L605.447,109.35L607.304,96.493L626.59,96.35Z" style="fill:rgb(74,172,238);stroke:rgb(74,172,238);stroke-width:1.45px;"/>
    <g transform="matrix(1,0,0,1,0.571429,-57)">
        <path d="M580.019,194.922L578.876,194.922L578.876,125.065L580.59,125.065L580.59,124.922L630.59,124.922L630.59,138.35L593.304,138.35L593.304,181.779L630.019,181.779L630.019,195.208L580.019,195.208L580.019,194.922Z" style="fill:rgb(57,57,57);stroke:rgb(57,57,57);stroke-width:1.45px;"/>
    </g>
    <path d="M527.508,115.2L527.508,137.779L512.079,137.779L512.079,68.35L513.617,68.35L513.65,67.922C513.65,67.922 530.62,67.056 548.045,68.056C558.968,68.683 567.278,77.011 567.079,90.208C566.916,101 562.027,109.286 554.199,112.7L567.936,137.922L550.079,137.35L539.134,114.872C535.598,115.047 531.761,115.169 527.508,115.2ZM527.508,83.117L527.508,102.214C544.123,102 552.601,101.118 552.435,91.937C552.28,83.377 543.204,83.471 527.508,83.117Z" style="fill:rgb(57,57,57);stroke:rgb(57,57,57);stroke-width:1.45px;"/>
    <path d="M385.253,138.282L385.11,138.282L385.11,67.996L402.682,67.996L402.682,124.996L429.967,124.996L429.967,138.71L385.253,138.71L385.253,138.282Z" style="fill:rgb(57,57,57);stroke:rgb(57,57,57);stroke-width:1.45px;"/>
    <g id="レイヤー1">
        <g>
            <path d="M343.63,69.25L378.505,128.35L342.755,138.25L343.63,69.25Z" style="fill:none;stroke:rgb(62,90,110);stroke-width:2.6px;"/>
            <path d="M343.63,69.25L308.805,127.15L342.755,138.25L343.63,69.25Z" style="fill:none;stroke:rgb(62,90,110);stroke-width:2.6px;"/>
            <g transform="matrix(-0.90625,-1.10984e-16,6.93967e-17,-0.566667,668.503,247.617)">
                <path d="M358.755,193L396.971,212.132L375.213,226.919L342.298,226.919L320.264,210.368L358.755,193Z" style="fill:none;stroke:rgb(62,90,110);stroke-width:3.44px;"/>
            </g>
            <path d="M343.705,70.45L358.605,118.95" style="fill:none;stroke:rgb(62,90,110);stroke-width:2.6px;"/>
            <path d="M329.105,118.75L343.505,69.65" style="fill:none;stroke:rgb(62,90,110);stroke-width:2.6px;"/>
        </g>
    </g>
    <path d="M234.032,68.139L233.932,137.439L249.532,137.239L249.932,68.239L234.032,68.139Z" style="fill:rgb(57,57,57);stroke:rgb(57,57,57);stroke-width:1.45px;"/>
    <path d="M126.058,67.539L141.258,67.439L141.458,136.839L126.158,137.239L126.058,67.539Z" style="fill:rgb(57,57,57);stroke:rgb(57,57,57);stroke-width:1.45px;"/>
    <g id="レイヤー2">
        <path d="M51.946,67.95C51.946,67.95 77.521,68.339 89.123,68.439C92.402,69.435 99.445,72.054 104.367,76.73C109.663,81.761 114.421,90.612 114.223,103.072C113.979,118.503 108.007,124.266 102.728,129.785C96.743,136.042 90.083,136.538 86.646,137.75C75.735,137.738 51.846,137.35 51.846,137.35L51.946,67.95ZM66.921,81.272L66.758,125.339C66.758,125.339 75.747,125.829 85.129,124.777C92.378,122.237 99.402,114.424 99.358,102.739C99.318,92.454 93.811,84.043 85.336,81.73C76.438,80.056 66.921,81.272 66.921,81.272Z" style="fill:rgb(57,57,57);stroke:rgb(57,57,57);stroke-width:1.45px;"/>
        <path d="M218.741,79.176C214.767,81.459 210.584,84.302 205.75,87.422C199.785,81.763 186.368,76.225 174.432,86.839C170.197,90.605 167.693,97.634 167.97,103.52C168.239,109.261 171.663,116.018 174.033,118.277C178.002,122.063 183.126,125.051 191.559,125.231C199.339,125.396 205.612,122.926 207.932,117.039C208.124,114.093 207.805,111.03 207.805,111.03L194.132,110.939L194.341,98.986L221.632,99.031C221.632,99.031 222.101,117.471 221.932,122.739C219.987,126.305 214.409,130.691 211.881,132.329C208.118,134.769 198.662,138.138 189.383,138.075C171.219,137.951 152.588,123.562 152.987,101.336C153.403,78.218 172.49,68.126 183.032,67.439C188.289,67.097 193.339,66.924 198.247,67.694C205.308,68.801 212.075,71.861 218.741,79.176Z" style="fill:rgb(57,57,57);stroke:rgb(57,57,57);stroke-width:1.45px;"/>
        <g transform="matrix(1,0,0,0.928571,0,5.77421)">
            <path d="M257.786,67.139L257.686,80.839L314.086,80.539L313.986,66.839L257.786,67.139Z" style="fill:rgb(57,57,57);stroke:rgb(57,57,57);stroke-width:1.51px;"/>
        </g>
        <path d="M278.069,137.339L293.769,137.739L293.769,88.839C293.769,88.839 291.969,85.939 286.169,85.739C280.369,85.539 278.169,88.839 278.169,88.839L278.069,137.339Z" style="fill:rgb(57,57,57);stroke:rgb(57,57,57);stroke-width:1.45px;"/>
        <g transform="matrix(1,0,0,1,386,0.5)">
            <path d="M51.946,67.95C51.946,67.95 77.521,68.339 89.123,68.439C92.402,69.435 99.445,72.054 104.367,76.73C109.663,81.761 114.421,90.612 114.223,103.072C113.979,118.503 108.007,124.266 102.728,129.785C96.743,136.042 90.083,136.538 86.646,137.75C75.735,137.738 51.846,137.35 51.846,137.35L51.946,67.95ZM66.921,81.272L66.758,125.339C66.758,125.339 75.747,125.829 85.129,124.777C92.378,122.237 99.402,114.424 99.358,102.739C99.318,92.454 93.811,84.043 85.336,81.73C76.438,80.056 66.921,81.272 66.921,81.272Z" style="fill:rgb(57,57,57);stroke:rgb(57,57,57);stroke-width:1.45px;"/>
        </g>
    </g>
    <g transform="matrix(1.10922,0,0,1.12304,-118.302,-20.0434)">
        <path d="M931.746,76.75C951.284,76.75 967.146,91.761 967.146,110.25C967.146,128.74 951.284,143.75 931.746,143.75C912.209,143.75 896.346,128.74 896.346,110.25C896.346,91.761 912.209,76.75 931.746,76.75ZM932.627,91.395C922.321,91.395 913.954,99.659 913.954,109.839C913.954,120.018 922.321,128.282 932.627,128.282C942.933,128.282 951.3,120.018 951.3,109.839C951.3,99.659 942.933,91.395 932.627,91.395Z" style="fill:rgb(57,57,57);stroke:rgb(57,57,57);stroke-width:1.3px;"/>
    </g>
</svg>
